Coordinates
version=1
nRows=14
nColumns=40
inDegrees=yes

Units are S.I. units (second, meters, Newtons, ...)
Angles are in degrees.

endheader
time	pelvis_tilt	pelvis_list	pelvis_rotation	pelvis_tx	pelvis_ty	pelvis_tz	hip_flexion_r	hip_adduction_r	hip_rotation_r	knee_angle_r	knee_angle_r_beta	ankle_angle_r	subtalar_angle_r	mtp_angle_r	hip_flexion_l	hip_adduction_l	hip_rotation_l	knee_angle_l	knee_angle_l_beta	ankle_angle_l	subtalar_angle_l	mtp_angle_l	lumbar_extension	lumbar_bending	lumbar_rotation	arm_flex_r	arm_add_r	arm_rot_r	elbow_flex_r	pro_sup_r	wrist_flex_r	wrist_dev_r	arm_flex_l	arm_add_l	arm_rot_l	elbow_flex_l	pro_sup_l	wrist_flex_l	wrist_dev_l
     37.61928571	     -5.58733997	     -5.76564488	     -3.41944972	      0.99428477	      0.93238033	      0.44369994	     34.58699421	     -3.76152518	     -8.47678355	     53.73078673	     53.73078673	      2.91986151	    -10.88891524	     -0.70177347	     15.12120909	     -7.49312943	     -7.51295522	     21.80804903	     21.80804903	     14.77090539	     -7.08649463	     -1.27775969	    -12.68184147	      4.54370319	      2.20757639	      0.91728785	    -16.06846497	     -2.84210197	     57.50596157	     46.06521410	      0.00000000	      0.00000000	     18.48754532	    -19.40159576	      3.12094917	     58.70079734	     46.35972245	      0.00000000	      0.00000000
     37.63107143	     -5.64859929	     -5.72728298	     -3.56963415	      0.99320292	      0.93258320	      0.44368330	     34.72080765	     -3.45286714	     -8.59568683	     50.33689840	     50.33689840	      2.58801423	    -10.06091964	     -1.25518603	     14.26187444	     -7.36178494	     -7.61601794	     21.06747778	     21.06747778	     14.67230200	     -7.19543070	     -2.08738919	    -12.54296875	      4.53453480	      1.79816545	      0.84208031	    -15.38931051	     -2.88074044	     51.00548925	     46.25440973	      0.00000000	      0.00000000	     19.26914416	    -20.28221521	      3.54623407	     61.17016262	     46.41248701	      0.00000000	      0.00000000
     37.64285714	     -5.69451436	     -5.71739437	     -3.71763105	      0.99222267	      0.93264494	      0.44375681	     34.69331707	     -3.09008315	     -8.77180957	     46.71275935	     46.71275935	      2.55729822	     -8.96714257	     -0.93618834	     13.43351516	     -7.28520357	     -7.75652713	     20.45874702	     20.45874702	     14.92858817	     -7.09794361	     -2.18062525	    -12.50238419	      4.66257015	      1.99776952	     -1.08282668	    -15.47239320	     -2.63182707	     49.17337805	     46.29114122	      0.00000000	      0.00000000	     20.64905288	    -20.35002090	      3.23133903	     62.65773010	     46.47446457	      0.00000000	      0.00000000
     37.65464286	     -5.65896689	     -5.51588324	     -3.94175763	      0.99139926	      0.93259750	      0.44396011	     34.48265055	     -2.86959647	     -8.87643676	     42.88528273	     42.88528273	      2.22679791	     -7.82364802	     -1.57625872	     12.43391124	     -6.99940259	     -8.03192975	     19.69809100	     19.69809100	     14.79622791	     -7.14066762	     -3.13456878	    -12.51744161	      4.41063611	      1.78207847	     -0.95074491	    -14.93135166	     -2.55962614	     42.44271083	     46.47983823	      0.00000000	      0.00000000	     21.21158601	    -21.07119138	      3.12083778	     66.03589570	     46.59449595	      0.00000000	      0.00000000
     37.66642857	     -5.62679031	     -5.37438837	     -4.10723866	      0.99070464	      0.93238455	      0.44415455	     34.11132932	     -2.58559528	     -9.11068137	     38.88844845	     38.88844845	      2.24370149	     -6.45844658	     -1.15653086	     11.52460679	     -6.79137341	     -8.26549801	     19.13568675	     19.13568675	     15.07715281	     -6.97204037	     -3.29721983	    -12.54947553	      4.38413740	      2.12440930	     -2.80964200	    -15.04074330	     -2.37864779	     40.67077606	     46.51401242	      0.00000000	      0.00000000	     22.50717913	    -20.97153518	      2.74164383	     67.80355538	     46.66728665	      0.00000000	      0.00000000
     37.67821429	     -5.63203746	     -5.19015665	     -4.27255663	      0.99016985	      0.93192122	      0.44450268	     33.67902787	     -2.31162810	     -9.42754531	     34.83039853	     34.83039853	      2.22078545	     -4.98073276	     -0.65399004	     10.65037815	     -6.55032108	     -8.54602596	     18.57184386	     18.57184386	     15.34920182	     -6.72974687	     -3.54662275	    -12.50652275	      4.25259213	      2.37094249	     -4.50469803	    -15.02222208	     -2.25711834	     38.73692253	     46.56085350	      0.00000000	      0.00000000	     23.65716660	    -20.98749017	      2.49984667	     69.68418567	     46.72982690	      0.00000000	      0.00000000
     37.69000000	     -5.49762078	     -4.80628959	     -4.45776120	      0.98989863	      0.93137053	      0.44489270	     33.08393302	     -2.27662589	     -9.87317576	     30.92070194	     30.92070194	      2.24615709	     -3.17373171	     -0.13954110	      9.57049565	     -6.10724602	     -9.09618190	     17.92423295	     17.92423295	     15.52662513	     -6.26356882	     -4.20324152	    -12.61518641	      3.85428565	      2.61588070	     -5.63920190	    -14.79102768	     -2.32706987	     35.45822067	     46.66467250	      0.00000000	      0.00000000	     24.47863639	    -21.21022890	      2.33181584	     72.72415013	     46.81755282	      0.00000000	      0.00000000
     37.70178571	     -5.46807054	     -4.61393838	     -4.56978797	      0.98983929	      0.93055226	      0.44543616	     32.39194066	     -1.93932204	    -10.25997650	     26.90931006	     26.90931006	      2.26233471	     -1.67622978	      0.72344612	      8.67349228	     -5.86381894	     -9.31638542	     17.43349026	     17.43349026	     15.85185155	     -5.96938803	     -4.55584186	    -12.49296219	      3.73541397	      2.52095481	     -7.11813830	    -14.74630842	     -2.38734096	     33.90042593	     46.71063768	      0.00000000	      0.00000000	     25.27807825	    -21.38304518	      2.06433696	     74.48065376	     46.87881027	      0.00000000	      0.00000000
     37.71357143	     -5.32498651	     -4.21838014	     -4.70737610	      0.99007088	      0.92961637	      0.44602120	     31.76902033	     -1.90602444	    -10.84919428	     23.59447109	     23.59447109	      3.04064928	      0.32516757	      3.36947799	      7.53560540	     -5.40529205	     -9.84945681	     16.70572821	     16.70572821	     15.76709071	     -5.48566864	     -5.93692725	    -12.54307710	      3.32333338	      1.75549897	     -6.98030775	    -14.17913169	     -3.74173220	     29.54293772	     46.90633380	      0.00000000	      0.00000000	     24.78134404	    -22.23068331	      0.78492059	     78.76428697	     47.12186332	      0.00000000	      0.00000000
     37.72535714	     -5.12567552	     -3.85378945	     -4.80953637	      0.99057399	      0.92858060	      0.44667977	     30.99519716	     -1.82185100	    -11.47447539	     20.44780505	     20.44780505	      3.18258663	      1.95783098	      4.53786890	      6.38067689	     -4.96484728	    -10.25804895	     16.12654947	     16.12654947	     16.16176667	     -4.93211046	     -6.24712109	    -12.59344722	      2.99405732	      2.00647863	     -8.77657232	    -14.18100938	     -3.94699352	     28.70757692	     46.92536404	      0.00000000	      0.00000000	     25.67002304	    -22.11858021	      0.55181827	     80.66536829	     47.19314589	      0.00000000	      0.00000000
     37.73714286	     -4.91959167	     -3.50510860	     -4.88279201	      0.99132797	      0.92739540	      0.44743299	     30.26961985	     -1.74767886	    -12.12038453	     17.83155304	     17.83155304	      3.38137923	      3.36646175	      5.89649214	      5.20293856	     -4.54703120	    -10.67606398	     15.54363595	     15.54363595	     16.56603523	     -4.28902288	     -6.62395098	    -12.60781502	      2.69742592	      2.14587079	    -10.50272716	    -14.17972618	     -4.25391028	     28.08635053	     46.94564109	      0.00000000	      0.00000000	     26.29748137	    -22.10798422	      0.36139505	     82.72865593	     47.26027525	      0.00000000	      0.00000000
     37.74892857	     -4.77861658	     -3.16038156	     -4.94236527	      0.99218675	      0.92597071	      0.44830591	     29.84220679	     -1.76834021	    -12.84887590	     16.14421549	     16.14421549	      4.33312829	      4.73887900	      9.23817775	      4.13161928	     -4.17513111	    -11.22518609	     15.03065185	     15.03065185	     16.91429742	     -3.44812493	     -7.35406302	    -12.58753331	      2.39244048	      1.84029608	    -12.00841608	    -14.05421039	     -5.73201360	     28.12111618	     46.98713347	      0.00000000	      0.00000000	     26.16949403	    -22.53108050	     -0.22171938	     85.82872815	     47.41326795	      0.00000000	      0.00000000
     37.76071429	     -4.61291123	     -2.84284586	     -4.97894807	      0.99327517	      0.92451957	      0.44923625	     29.31769307	     -1.73776330	    -13.29254828	     14.70671570	     14.70671570	      4.25962743	      5.35701512	      9.80973223	      2.97950414	     -3.76420059	    -11.45254224	     14.43234100	     14.43234100	     17.35759923	     -2.98732906	     -7.45919419	    -12.48855321	      2.14597306	      2.05066584	    -13.60109899	    -14.03701968	     -5.90461023	     27.60045992	     46.99841251	      0.00000000	      0.00000000	     26.77507070	    -22.27269507	     -0.42667728	     87.31122298	     47.46572025	      0.00000000	      0.00000000
     37.77250000	     -4.45126124	     -2.56463868	     -4.99254084	      0.99452140	      0.92297664	      0.45035073	     28.91398018	     -1.75762770	    -13.73752453	     13.95836735	     13.95836735	      4.19520624	      5.75192982	     10.13956290	      1.83701791	     -3.42179161	    -11.69315017	     13.86882809	     13.86882809	     17.82406475	     -2.46762953	     -7.56207026	    -12.40449706	      1.92915998	      2.23424620	    -15.17109737	    -14.00627682	     -6.15492947	     27.32408128	     47.00631825	      0.00000000	      0.00000000	     27.17577158	    -22.17358079	     -0.65202135	     89.00121485	     47.52263261	      0.00000000	      0.00000000
